#!OML:ASF F:\VICON\USERDATA\INSTALL\rory3\rory3.ASF
:FULLY-SPECIFIED
:DEGREES
136
root -3.86729 16.1234 40.0932 -160.323 -13.6726 -179.226
lowerback -1.69686 2.18216 4.05087
upperback -3.18958 2.71541 2.86174
thorax -2.27589 1.19493 0.673188
lowerneck -9.75926 -8.01093 -10.8175
upperneck 29.6989 -14.6756 7.7928
head 12.8932 -7.64955 2.48383
rclavicle 3.71727e-014 -1.59028e-015
rhumerus 5.97275 -0.931657 -45.5167
rradius 31.2742
rwrist 10.0535
rhand -26.2357 -68.1877
rfingers 7.12502
rthumb 0.318065 -261.833
lclavicle 3.71727e-014 -1.59028e-015
lhumerus -49.9157 10.9794 28.7469
lradius 22.9706
lwrist 5.94238
lhand -28.1553 -33.4285
lfingers 7.12502
lthumb -1.53591 -3.45431
rfemur -68.9443 -7.57279 25.8163
rtibia 50.1221
rfoot -1.77811 -12.1571
rtoes -13.0683
lfemur -24.4116 -6.97791 -22.4878
ltibia 39.1547
lfoot -33.0522 13.0709
ltoes -0.924803
137
root -3.87815 16.1087 39.9941 -159.987 -13.4551 -179.293
lowerback -1.46159 1.92362 4.06228
upperback -2.3542 2.37498 3.16773
thorax -1.56481 1.0561 0.984894
lowerneck -13.3063 -8.31419 -11.0752
upperneck 30.5067 -14.3792 7.40849
head 13.9512 -7.36332 2.25102
rclavicle -6.08281e-014 -3.02153e-014
rhumerus 8.67788 -1.07035 -45.3253
rradius 30.9452
rwrist 10.1141
rhand -28.6153 -70.7772
rfingers 7.12502
rthumb -1.98015 -259.252
lclavicle -6.08281e-014 -3.02153e-014
lhumerus -49.3256 12.3726 28.4433
lradius 23.3263
lwrist 7.38913
lhand -28.9987 -31.707
lfingers 7.12502
lthumb -2.35042 -1.7402
rfemur -69.3581 -7.48942 25.6996
rtibia 49.062
rfoot -1.26507 -11.793
rtoes -13.4292
lfemur -24.2719 -6.15017 -22.688
ltibia 38.9495
lfoot -33.3094 12.8184
ltoes -0.96221
138
root -3.86631 16.0972 39.9055 -159.294 -14.2382 -179.671
lowerback -1.97816 1.82155 3.75809
upperback -2.74908 2.20884 3.18787
thorax -1.69564 0.966494 1.18475
lowerneck -11.4732 -8.25246 -11.1662
upperneck 29.9571 -14.6131 7.67956
head 13.3803 -7.54852 2.42125
rclavicle 6.75868e-015 2.8625e-014
rhumerus 8.14881 -0.586494 -44.8261
rradius 31.0113
rwrist 9.97747
rhand -26.5014 -66.8844
rfingers 7.12502
rthumb 0.0614563 -263.136
lclavicle 6.75868e-015 2.8625e-014
lhumerus -48.4433 11.7298 27.2917
lradius 23.0896
lwrist 5.99948
lhand -28.79 -31.7281
lfingers 7.12502
lthumb -2.14886 -1.75917
rfemur -70.0682 -7.80074 25.205
rtibia 48.116
rfoot -0.829535 -12.1248
rtoes -13.2486
lfemur -24.5245 -5.98595 -22.7393
ltibia 38.6135
lfoot -33.3542 12.2352
ltoes -1.29943
139
root -3.86605 16.0897 39.794 -159.197 -14.5264 -179.811
lowerback -1.82702 1.66682 3.76515
upperback -2.38611 2.00702 3.33024
thorax -1.41281 0.877589 1.32573
lowerneck -12.4358 -8.44608 -11.2641
upperneck 30.1142 -14.6805 7.58995
head 13.6639 -7.53029 2.34175
rclavicle -2.5842e-014 4.13472e-014
rhumerus 9.45626 -0.884576 -44.7108
rradius 30.698
rwrist 11.3626
rhand -27.3336 -66.0593
rfingers 7.12502
rthumb -0.742267 -263.962
lclavicle -2.5842e-014 4.13472e-014
lhumerus -47.4299 12.1792 26.5772
lradius 23.0032
lwrist 6.02073
lhand -28.2355 -33.3644
lfingers 7.12502
lthumb -1.61334 -3.39071
rfemur -70.0693 -7.71405 24.7214
rtibia 47.2603
rfoot -0.562201 -12.3931
rtoes -12.5104
lfemur -24.006 -6.14666 -22.7629
ltibia 38.3045
lfoot -33.6694 12.2873
ltoes -1.28437
140
root -3.86457 16.0797 39.7004 -158.751 -14.8653 -179.949
lowerback -1.79533 1.82413 3.83724
upperback -2.86874 2.22388 3.21334
thorax -1.91969 0.966693 1.16019
lowerneck -10.9504 -8.44035 -11.045
upperneck 29.8314 -15.009 7.6505
head 13.2497 -7.73661 2.34716
rclavicle -1.47101e-014 -1.27222e-014
rhumerus 8.61912 -0.943479 -44.4903
rradius 30.7553
rwrist 12.5575
rhand -29.353 -64.1339
rfingers 7.12502
rthumb -2.69262 -265.903
lclavicle -1.47101e-014 -1.27222e-014
lhumerus -46.1032 10.6016 26.2203
lradius 23.152
lwrist 6.49273
lhand -29.032 -32.4742
lfingers 7.12502
lthumb -2.3826 -2.50777
rfemur -70.5354 -7.7102 24.347
rtibia 46.5249
rfoot -0.229046 -12.7806
rtoes -11.233
lfemur -23.9924 -6.35226 -22.7278
ltibia 37.9627
lfoot -33.5111 12.492
ltoes -2.15908
141
root -3.8576 16.0656 39.6083 -158.24 -15.3527 -180.297
lowerback -1.60409 1.77449 3.68632
upperback -3.02787 2.17693 3.19518
thorax -2.19643 0.941511 1.21802
lowerneck -10.9238 -8.53728 -10.9499
upperneck 29.8233 -15.1815 7.64088
head 13.2518 -7.80073 2.29925
rclavicle 4.53229e-014 -5.88403e-014
rhumerus 8.50711 -1.01063 -44.2122
rradius 30.8248
rwrist 12.8248
rhand -30.5886 -55.421
rfingers 7.12502
rthumb -3.88584 -445.365
lclavicle 4.53229e-014 -5.88403e-014
lhumerus -44.7641 10.1702 25.6761
lradius 23.1942
lwrist 6.30522
lhand -29.2814 -32.1114
lfingers 7.12502
lthumb -2.62346 -2.14781
rfemur -71.0633 -7.84088 23.7537
rtibia 45.9056
rfoot 0.339772 -13.3444
rtoes -10.8431
lfemur -23.9501 -6.70355 -22.8091
ltibia 37.516
lfoot -33.3342 12.4595
ltoes -2.62436
142
root -3.84369 16.0564 39.5014 -157.949 -15.966 -180.797
lowerback -1.83224 1.36448 3.10279
upperback -2.20339 1.60875 3.5955
thorax -1.24938 0.696344 1.9671
lowerneck -12.8054 -8.83245 -11.3069
upperneck 29.7701 -15.0399 7.55994
head 13.642 -7.63547 2.25782
rclavicle 2.14687e-014 3.33958e-014
rhumerus 10.8095 -1.48903 -43.9002
rradius 30.4407
rwrist 13.3228
rhand -27.632 -69.8238
rfingers 7.12502
rthumb -1.03053 -620.199
lclavicle 2.14687e-014 3.33958e-014
lhumerus -43.6863 11.8154 25.1654
lradius 23.164
lwrist 5.9114
lhand -28.8856 -32.1497
lfingers 7.12502
lthumb -2.2412 -2.18176
rfemur -71.232 -8.03357 22.926
rtibia 45.385
rfoot 0.636541 -14.0528
rtoes -10.7003
lfemur -23.518 -6.87983 -22.9834
ltibia 37.039
lfoot -33.3767 12.2261
ltoes -3.41809
143
root -3.83544 16.0535 39.386 -157.902 -16.4694 -181.116
lowerback -1.53706 1.31751 2.9437
upperback -2.42611 1.57268 3.58717
thorax -1.64789 0.676612 2.03937
lowerneck -11.3157 -8.83019 -11.36
upperneck 29.2481 -15.2925 7.8079
head 13.1632 -7.8061 2.39697
rclavicle -5.84427e-014 1.59028e-014
rhumerus 10.5162 -1.21408 -43.6675
rradius 30.2366
rwrist 13.3096
rhand -28.2164 -68.5678
rfingers 7.12502
rthumb -1.59491 -621.458
lclavicle -5.84427e-014 1.59028e-014
lhumerus -42.416 10.5155 24.8194
lradius 23.3696
lwrist 6.06952
lhand -29.2126 -32.4436
lfingers 7.12502
lthumb -2.55708 -2.47918
rfemur -71.1183 -8.18868 22.3182
rtibia 44.9442
rfoot 0.387434 -14.7225
rtoes -9.66352
lfemur -22.8251 -6.86954 -23.0483
ltibia 36.5603
lfoot -33.4993 11.9407
ltoes -4.11408
144
root -3.83551 16.0422 39.2743 -157.857 -16.8205 -181.23
lowerback -1.18489 1.20477 3.13378
upperback -2.20264 1.4359 3.69895
thorax -1.61198 0.608617 2.04301
lowerneck -11.7015 -8.96862 -11.4942
upperneck 29.1039 -15.35 7.86825
head 13.211 -7.79906 2.41304
rclavicle 2.18663e-014 -4.77083e-015
rhumerus 11.2476 -1.11749 -43.5104
rradius 29.7767
rwrist 12.6037
rhand -30.3219 -69.1876
rfingers 7.12502
rthumb -3.62832 -620.864
lclavicle 2.18663e-014 -4.77083e-015
lhumerus -41.1198 10.5132 24.4034
lradius 23.4771
lwrist 5.83549
lhand -30.5231 -33.218
lfingers 7.12502
lthumb -3.82265 -3.27256
rfemur -71.1451 -8.32899 22.0701
rtibia 44.5881
rfoot 0.382013 -15.1765
rtoes -9.84803
lfemur -22.2397 -6.99216 -22.9733
ltibia 36.1291
lfoot -33.6351 11.6162
ltoes -3.70307
145
root -3.83642 16.0229 39.1682 -157.643 -17.0645 -181.259
lowerback -0.941089 1.16346 3.35481
upperback -2.36877 1.39104 3.79801
thorax -1.91686 0.574287 2.01711
lowerneck -10.9268 -8.8707 -11.6545
upperneck 28.7754 -15.2819 8.00406
head 12.9306 -7.81187 2.54665
rclavicle -4.73108e-014 7.31528e-014
rhumerus 11.4547 -0.824568 -43.4433
rradius 29.3329
rwrist 12.6125
rhand -32.0181 -58.8546
rfingers 7.12502
rthumb -5.26618 -448.769
lclavicle -4.73108e-014 7.31528e-014
lhumerus -39.9789 9.7846 24.0158
lradius 23.5914
lwrist 5.75197
lhand -31.3766 -34.0451
lfingers 7.12502
lthumb -4.6468 -4.11604
rfemur -71.4463 -8.40674 21.9934
rtibia 44.2948
rfoot 0.364887 -15.4914
rtoes -10.2105
lfemur -21.9518 -7.23603 -22.8287
ltibia 35.8353
lfoot -33.8854 11.533
ltoes -3.19605
146
root -3.83837 15.9981 39.0627 -157.343 -17.1495 -181.388
lowerback -0.661425 1.14745 3.50002
upperback -2.2925 1.38513 3.83146
thorax -1.99296 0.569031 1.96623
lowerneck -11.3027 -8.93484 -11.5864
upperneck 28.7105 -15.2793 7.99148
head 12.9751 -7.77258 2.51394
rclavicle 3.45885e-014 1.00187e-013
rhumerus 12.0681 -1.0611 -43.5278
rradius 28.934
rwrist 13.179
rhand -29.5562 -63.4971
rfingers 7.12502
rthumb -2.88883 -626.543
lclavicle 3.45885e-014 1.00187e-013
lhumerus -38.4894 9.69245 23.6413
lradius 23.6313
lwrist 5.61646
lhand -31.4056 -34.8825
lfingers 7.12502
lthumb -4.6748 -4.95405
rfemur -71.8439 -8.51749 21.9148
rtibia 44.0413
rfoot -0.0522261 -15.5648
rtoes -9.68015
lfemur -21.7769 -7.46919 -22.8565
ltibia 35.7357
lfoot -33.9729 11.7353
ltoes -3.83483
